<svg xmlns="http://www.w3.org/2000/svg" viewBox="0 0 100 100">
    <rect rx="4" fill="#5c5c5c" x="20" y="4" width="60" height="90.5"></rect>
    <circle cx="24.418" cy="12.375" r="1.5"/>
    <circle cx="24.418" cy="79.133" r="1.5"/>
    <circle cx="75.871" cy="12.375" r="1.5"/>
    <circle cx="75.871" cy="79.133" r="1.5"/>
    <path d="M22.736 96.5h54.527c3.032 0 5.5-2.467 5.5-5.5V9c0-3.033-2.468-5.5-5.5-5.5H22.736a5.506 5.506 0 0 0-5.5 5.5v82c0 3.033 2.468 5.5 5.5 5.5zm46.779-3.015h-2.618v-4.09a1.5 1.5 0 1 0-3 0v4.09h-2.296v-4.09a1.5 1.5 0 1 0-3 0v4.09h-2.297v-4.09a1.5 1.5 0 1 0-3 0v4.09h-2.296v-4.09a1.5 1.5 0 1 0-3 0v4.09h-2.296v-4.09a1.5 1.5 0 1 0-3 0v4.09h-2.296v-4.09a1.5 1.5 0 1 0-3 0v4.09h-2.618v-6.984h34.717v6.984zM20.236 9c0-1.378 1.121-2.5 2.5-2.5h54.527c1.379 0 2.5 1.122 2.5 2.5v82c0 1.378-1.121 2.5-2.5 2.5h-4.749v-8.499a1.5 1.5 0 0 0-1.5-1.5H33.298a1.5 1.5 0 0 0-1.5 1.5V93.5h-9.062a2.503 2.503 0 0 1-2.5-2.5V9z"/><path d="M29.736 75.5h40.527c1.379 0 2.5-1.122 2.5-2.5V18c0-1.378-1.121-2.5-2.5-2.5H29.736a2.503 2.503 0 0 0-2.5 2.5v55c0 1.378 1.121 2.5 2.5 2.5zm.5-57h39.527v54H30.236v-54z"/></svg>