<svg xmlns="http://www.w3.org/2000/svg" viewBox="0 0 32 32">
    <g data-name="Layer 2">
        <rect fill="#ff0000" rx="1" x="4" y="4" width="25" height="25" />
        <path d="M27 2H5a3 3 0 0 0-3 3v22a3 3 0 0 0 3 3h22a3 3 0 0 0 3-3V5a3 3 0 0 0-3-3Zm1 25a1 1 0 0 1-1 1H5a1 1 0 0 1-1-1V5a1 1 0 0 1 1-1h22a1 1 0 0 1 1 1Z"/>
        <path d="M24 13h-1v-2a2 2 0 0 0-2-2V8a2 2 0 0 0-2-2h-6a2 2 0 0 0-2 2v1a2 2 0 0 0-2 2v2H8a2 2 0 0 0-2 2v9a2 2 0 0 0 2 2h16a2 2 0 0 0 2-2v-9a2 2 0 0 0-2-2Zm0 11H8v-9h2a1 1 0 0 0 1-1v-3h1a1 1 0 0 0 1-1V8h6v2a1 1 0 0 0 1 1h1v3a1 1 0 0 0 1 1h2Z"/>
        <path d="M16 17a1 1 0 0 0-1 1v3a1 1 0 0 0 2 0v-3a1 1 0 0 0-1-1zm-4 0a1 1 0 0 0-1 1v3a1 1 0 0 0 2 0v-3a1 1 0 0 0-1-1zm8 0a1 1 0 0 0-1 1v3a1 1 0 0 0 2 0v-3a1 1 0 0 0-1-1z"/>
    </g></svg>