<svg xmlns="http://www.w3.org/2000/svg" viewBox="0 0 33.62 33.65">
    <g data-name="Layer 2">
        <rect fill="#5c5c5c" rx="3" x="0.2" y="0.2" width="14.2" height="14.2"></rect>
        <rect fill="#5c5c5c" rx="3" x="19.2" y="0.2" width="14.2" height="14.2"></rect>
        <rect fill="#5c5c5c" rx="3" x="0.2" y="19.2" width="14.2" height="14.2"></rect>
        <rect fill="#5c5c5c" rx="3" x="19.2" y="19.2" width="14.2" height="14.2"></rect>
        <path d="M11.8 2a1.44 1.44 0 0 1 1.44 1.44v8.36a1.43 1.43 0 0 1-1.44 1.44H3.48A1.44 1.44 0 0 1 2 11.8V3.48A1.45 1.45 0 0 1 3.48 2h8.32m0-2H3.48A3.48 3.48 0 0 0 0 3.48v8.32a3.49 3.49 0 0 0 3.48 3.49h8.32a3.5 3.5 0 0 0 3.49-3.49V3.48A3.49 3.49 0 0 0 11.8 0zm18.33 2a1.44 1.44 0 0 1 1.44 1.44v8.36a1.43 1.43 0 0 1-1.44 1.44h-8.32a1.44 1.44 0 0 1-1.44-1.44V3.48A1.45 1.45 0 0 1 21.81 2h8.32m0-2h-8.32a3.48 3.48 0 0 0-3.48 3.48v8.32a3.49 3.49 0 0 0 3.48 3.49h8.32a3.5 3.5 0 0 0 3.49-3.49V3.48A3.49 3.49 0 0 0 30.13 0zm0 20.4a1.44 1.44 0 0 1 1.44 1.44v8.32a1.43 1.43 0 0 1-1.44 1.44h-8.32a1.44 1.44 0 0 1-1.44-1.44v-8.32a1.45 1.45 0 0 1 1.44-1.44h8.32m0-2h-8.32a3.48 3.48 0 0 0-3.48 3.48v8.32a3.49 3.49 0 0 0 3.48 3.49h8.32a3.5 3.5 0 0 0 3.49-3.49v-8.36a3.49 3.49 0 0 0-3.49-3.48zm-18.33 2a1.44 1.44 0 0 1 1.44 1.44v8.32a1.43 1.43 0 0 1-1.44 1.44H3.48A1.44 1.44 0 0 1 2 30.16v-8.32a1.45 1.45 0 0 1 1.48-1.44h8.32m0-2H3.48A3.48 3.48 0 0 0 0 21.84v8.32a3.49 3.49 0 0 0 3.48 3.49h8.32a3.5 3.5 0 0 0 3.49-3.49v-8.32a3.49 3.49 0 0 0-3.49-3.48z" data-name="Layer 1"/></g></svg>